<svg width="212" height="45" viewBox="0 0 212 45" fill="none" xmlns="http://www.w3.org/2000/svg">
    <path d="M198.09 25.2901C198.09 20.6459 200.456 17.3393 205.214 17.3393C210.258 17.3393 211.997 21.0156 211.997 24.6919C212.008 25.1106 211.989 25.5295 211.94 25.9454H202.193C202.193 27.7981 203.134 29.5937 205.157 29.5937C205.705 29.6787 206.265 29.5683 206.739 29.2817C207.213 28.9952 207.571 28.5508 207.75 28.0266H211.825C211.312 29.8211 209.688 32.7851 205.072 32.7851C200.194 32.7851 198.09 29.1669 198.09 25.2901ZM202.279 23.4385H207.893C207.865 21.728 207.18 20.2752 205.186 20.2752C203.248 20.2752 202.45 21.6149 202.279 23.4385ZM172.675 28.1678C172.675 24.8051 175.354 23.238 179.68 23.238H181.79V22.3542C181.79 21.3001 181.419 20.2741 179.51 20.2741C177.801 20.2741 177.402 20.9865 177.231 22.0697H173.35C173.55 19.4485 175.174 17.3393 179.676 17.3393C183.609 17.3673 185.774 18.9064 185.774 22.4404V28.6237C185.767 29.8994 185.833 31.1744 185.974 32.4423H182.07C181.941 31.9686 181.874 31.4803 181.869 30.9895C181.33 31.8161 180.33 32.784 177.709 32.784C174.157 32.7851 172.675 30.4484 172.675 28.1689V28.1678ZM176.75 27.9113C176.739 28.1875 176.788 28.4627 176.894 28.718C177 28.9733 177.16 29.2025 177.363 29.3896C177.566 29.5768 177.808 29.7174 178.071 29.8018C178.334 29.8862 178.613 29.9123 178.887 29.8783C181.48 29.8783 181.797 28.0546 181.797 26.1168V25.718H180.144C177.663 25.718 176.75 26.4875 176.75 27.9156V27.9113ZM151.693 22.8683C151.693 16.9696 155.142 12.5215 161.325 12.5215C166.367 12.5215 169.361 15.3712 169.816 18.7048H165.571C165.172 17.3942 164.146 15.8271 161.268 15.8271C157.222 15.8271 156.082 19.2179 156.082 22.6657C156.082 26.0564 157.394 29.39 161.298 29.39C164.917 29.39 165.6 26.854 165.6 25.1155V24.9161H161.298V21.4489H169.76V32.4423H166.654C166.48 31.8077 166.365 31.1582 166.311 30.5023C165.234 31.9843 163.32 32.7818 160.584 32.7818C154.883 32.7851 151.693 28.4545 151.693 22.8683ZM112.931 25.2901C112.931 20.6459 115.296 17.3393 120.055 17.3393C125.099 17.3393 126.837 21.0156 126.837 24.6919C126.849 25.1106 126.83 25.5295 126.78 25.9454H117.034C117.034 27.7981 117.975 29.5937 119.998 29.5937C120.546 29.6791 121.107 29.5685 121.581 29.2812C122.056 28.994 122.414 28.5486 122.593 28.0234H126.668C126.155 29.8179 124.531 32.7818 119.915 32.7818C115.039 32.7851 112.931 29.1669 112.931 25.2901ZM117.12 23.4385H122.733C122.704 21.728 122.021 20.2752 120.026 20.2752C118.089 20.2752 117.29 21.6149 117.12 23.4385ZM95.9717 25.177C95.9717 20.6502 98.4797 17.3403 102.668 17.3403C104.805 17.3403 105.946 18.1099 106.258 18.7652V11.641H110.333V28.3963C110.333 29.736 110.333 31.1037 110.362 32.4434H106.463C106.378 31.9875 106.291 31.246 106.263 30.9043C105.551 32.0726 104.268 32.7851 102.074 32.7851C98.3428 32.7851 95.9717 29.7931 95.9717 25.177ZM100.16 25.0918C100.16 27.9706 101.271 29.5107 103.294 29.5107C106.087 29.5107 106.428 27.1741 106.428 25.0649C106.428 22.5288 106.058 20.6201 103.379 20.6201C101.253 20.6168 100.165 22.2982 100.165 25.0907L100.16 25.0918ZM72.007 25.1209C72.007 20.5619 74.7715 17.3414 79.4438 17.3414C83.7754 17.3414 86.596 20.4185 86.596 25.0358C86.596 29.5097 83.9166 32.7861 79.2433 32.7861C74.6907 32.7851 72.0113 29.5075 72.0113 25.1198L72.007 25.1209ZM76.1393 25.0638C76.1393 27.9135 77.3647 29.5905 79.3317 29.5905C81.3547 29.5905 82.4659 27.9091 82.4659 25.0886C82.4659 22.0115 81.3267 20.5619 79.2735 20.5619C77.397 20.5597 76.1403 21.9565 76.1403 25.0627L76.1393 25.0638ZM51.0278 22.8683C51.0278 16.9696 54.4768 12.5237 60.659 12.5237C65.703 12.5237 68.695 15.3734 69.1509 18.707H64.9055C64.5067 17.3964 63.4806 15.8293 60.6029 15.8293C56.5569 15.8293 55.4166 19.22 55.4166 22.6679C55.4166 26.0586 56.7272 29.3922 60.6309 29.3922C64.2502 29.3922 64.9335 26.8561 64.9335 25.1177V24.9183H60.6309V21.4489H69.0948V32.4423H65.9886C65.8146 31.8077 65.7002 31.1582 65.647 30.5023C64.5692 31.9843 62.655 32.7818 59.9185 32.7818C54.2192 32.7851 51.0278 28.4545 51.0278 22.8683ZM189.918 28.5106V20.7602H187.638V17.6766H189.917V13.6888H193.992V17.6766H196.902V20.7602H193.992V28.0546C193.992 29.1659 194.334 29.5927 195.559 29.5927C195.788 29.5927 196.187 29.5927 196.471 29.5646V32.3561C195.58 32.5935 194.657 32.6898 193.736 32.6417C190.858 32.6428 189.918 31.1037 189.918 28.5106ZM138.618 32.4423V23.5236C138.618 21.8423 138.079 20.6448 136.252 20.6448C134.514 20.6448 133.544 21.6149 133.544 24.235V32.4423H129.441V21.4144C129.441 20.1609 129.441 18.7921 129.412 17.682H133.371C133.456 18.0808 133.513 19.1068 133.542 19.5627C133.97 18.8243 134.599 18.223 135.356 17.8294C136.113 17.4357 136.967 17.2661 137.817 17.3403C140.78 17.3403 142.69 19.3634 142.69 23.0677V32.4445L138.618 32.4423ZM89.2236 32.4423V11.641H93.3278V32.4423H89.2236Z" fill="#45403A"/>
    <path d="M22.5786 44.4265L-6.10352e-05 21.8479L21.8478 0L24.2922 2.44443L4.89203 21.8446L22.5786 39.5376L39.3845 22.7317L28.4385 11.7856L18.3569 21.8673L22.5926 26.103L28.57 20.1256L31.0144 22.57L22.5936 30.9918L13.4691 21.8673L28.4385 6.89785L44.2734 22.7317L22.5786 44.4265Z" fill="#CC331D"/>
</svg>
